<svg width="17" height="18" viewBox="0 0 17 18" fill="none" xmlns="http://www.w3.org/2000/svg">
<path fill-rule="evenodd" clip-rule="evenodd" d="M6.37516 6.87468H14.8752C15.6576 6.87468 16.2918 6.24041 16.2918 5.45801V2.62467C16.2918 1.84227 15.6576 1.20801 14.8752 1.20801H2.12516C1.34276 1.20801 0.708496 1.84227 0.708496 2.62467V15.3747C0.708496 16.1571 1.34276 16.7913 2.12516 16.7913H4.9585C5.7409 16.7913 6.37516 16.1571 6.37516 15.3747V6.87468ZM4.9585 12.5413V10.4163H4.25016C3.85896 10.4163 3.54183 10.0992 3.54183 9.70801C3.54183 9.31681 3.85896 8.99968 4.25016 8.99968H4.9585V6.87468H4.25016C3.85896 6.87468 3.54183 6.55754 3.54183 6.16634C3.54183 5.77514 3.85896 5.45801 4.25016 5.45801H4.9585V4.74968C4.9585 4.35847 5.27563 4.04134 5.66683 4.04134C6.05803 4.04134 6.37516 4.35847 6.37516 4.74968V5.45801H8.50016V4.74968C8.50016 4.35847 8.8173 4.04134 9.2085 4.04134C9.5997 4.04134 9.91683 4.35847 9.91683 4.74968V5.45801H12.0418V4.74968C12.0418 4.35847 12.359 4.04134 12.7502 4.04134C13.1414 4.04134 13.4585 4.35847 13.4585 4.74968V5.45801H14.1668C14.558 5.45801 14.8752 5.14088 14.8752 4.74968V3.33301C14.8752 2.94181 14.558 2.62467 14.1668 2.62467H2.8335C2.44229 2.62467 2.12516 2.94181 2.12516 3.33301V14.6663C2.12516 15.0575 2.44229 15.3747 2.8335 15.3747H4.25016C4.64137 15.3747 4.9585 15.0575 4.9585 14.6663V13.958H4.25016C3.85896 13.958 3.54183 13.6409 3.54183 13.2497C3.54183 12.8585 3.85896 12.5413 4.25016 12.5413H4.9585Z" fill="#94897C"/>
</svg>
