<svg width="24" height="24" viewBox="0 0 24 24" fill="none" xmlns="http://www.w3.org/2000/svg">
<path fill-rule="evenodd" clip-rule="evenodd" d="M16.5286 5.99961C16.5099 5.91891 16.4904 5.83803 16.4702 5.75708C16.2062 4.70099 15.7904 3.55344 15.1126 2.64961C14.4136 1.71763 13.3929 0.999611 12.0001 0.999611C10.6072 0.999611 9.58654 1.71763 8.88756 2.64961C8.20969 3.55344 7.79394 4.70099 7.52991 5.75708C7.50968 5.83803 7.49022 5.91891 7.47151 5.99961H5.87116C4.29177 5.99961 2.98287 7.22416 2.87781 8.80005L2.14448 19.8001C2.02904 21.5316 3.40244 22.9996 5.13783 22.9996H18.8623C20.5977 22.9996 21.9711 21.5316 21.8556 19.8001L21.1223 8.80005C21.0172 7.22416 19.7083 5.99961 18.129 5.99961H16.5286ZM8.00006 10.9996C8.57304 10.9996 8.99812 10.568 9.00007 9.99778C9.00022 9.974 9.0005 9.95021 9.0009 9.92643C9.00178 9.87374 9.00357 9.79416 9.00724 9.69155C9.01457 9.48613 9.02936 9.1896 9.05911 8.83266C9.08021 8.57937 9.10865 8.29823 9.1468 7.99961H14.8533C14.8915 8.29823 14.9199 8.57937 14.941 8.83266C14.9708 9.1896 14.9855 9.48613 14.9929 9.69155C14.9965 9.79416 14.9983 9.87374 14.9992 9.92643C14.9996 9.95095 15 9.97548 15.0001 10C15.0001 10 15.0001 10.9996 16.0001 10.9996C17.0001 10.9996 17.0001 9.99827 17.0001 9.99827C17 9.96321 16.9995 9.92815 16.9989 9.8931C16.9979 9.82861 16.9958 9.73631 16.9916 9.62017C16.9833 9.38809 16.9669 9.05962 16.9341 8.66657C16.917 8.46163 16.8954 8.23773 16.868 7.99961H18.129C18.6554 7.99961 19.0917 8.40779 19.1267 8.93309L19.8601 19.9331C19.8986 20.5103 19.4408 20.9996 18.8623 20.9996H5.13783C4.55937 20.9996 4.10157 20.5103 4.14005 19.9331L4.87338 8.93309C4.9084 8.40779 5.3447 7.99961 5.87116 7.99961H7.13214C7.10471 8.23773 7.08309 8.46163 7.06601 8.66657C7.03326 9.05962 7.0168 9.38809 7.00851 9.62017C7.00436 9.73631 7.00225 9.82861 7.00118 9.8931C7.0006 9.92746 7.00017 9.96182 7.00007 9.99619C6.9993 10.5668 7.42839 10.9996 8.00006 10.9996ZM9.53358 5.99961H14.4665C14.2353 5.15283 13.9211 4.39427 13.5126 3.84961C13.0865 3.28159 12.6072 2.99961 12.0001 2.99961C11.3929 2.99961 10.9136 3.28159 10.4876 3.84961C10.0791 4.39427 9.76479 5.15283 9.53358 5.99961Z" fill="#161515"/>
</svg>
