<svg width="22" height="20" viewBox="0 0 22 20" fill="none" xmlns="http://www.w3.org/2000/svg">
<path d="M10.7607 0.540039C10.836 0.308961 11.164 0.308962 11.2393 0.540039L13.3457 7.02344C13.4461 7.33179 13.7333 7.54102 14.0576 7.54102H20.874C21.1172 7.54118 21.2183 7.85215 21.0215 7.99512L15.5068 12.002C15.2446 12.1927 15.1342 12.5304 15.2344 12.8389L17.3408 19.3213C17.416 19.5526 17.1519 19.7451 16.9551 19.6025L11.4404 15.5957C11.178 15.405 10.822 15.405 10.5596 15.5957L5.04492 19.6025C4.84812 19.7451 4.58404 19.5526 4.65918 19.3213L6.76562 12.8389C6.86581 12.5304 6.75545 12.1927 6.49316 12.002L0.978516 7.99512C0.781738 7.85215 0.88282 7.54118 1.12598 7.54102H7.94238C8.26668 7.54102 8.55394 7.33179 8.6543 7.02344L10.7607 0.540039Z" stroke="#3B2317" stroke-width="0.497704"/>
</svg>
