<svg width="24" height="24" viewBox="0 0 24 24" fill="none" xmlns="http://www.w3.org/2000/svg">
<path d="M11.5245 1.46353C11.6741 1.00287 12.3259 1.00287 12.4755 1.46353L14.5819 7.9463C14.6488 8.15232 14.8408 8.2918 15.0574 8.2918H21.8738C22.3582 8.2918 22.5596 8.9116 22.1677 9.1963L16.6531 13.2029C16.4779 13.3302 16.4046 13.5559 16.4715 13.7619L18.5779 20.2447C18.7276 20.7053 18.2003 21.0884 17.8085 20.8037L12.2939 16.7971C12.1186 16.6698 11.8814 16.6698 11.7061 16.7971L6.19153 20.8037C5.79967 21.0884 5.27243 20.7053 5.42211 20.2447L7.52849 13.7619C7.59543 13.5559 7.5221 13.3302 7.34685 13.2029L1.83227 9.1963C1.44041 8.9116 1.6418 8.2918 2.12616 8.2918H8.94256C9.15917 8.2918 9.35115 8.15232 9.41809 7.9463L11.5245 1.46353Z" fill="#3B2317"/>
</svg>
