<svg width="40" height="40" fill="none" xmlns="http://www.w3.org/2000/svg"><path d="M15.938 3.75H5.312c-.862 0-1.562.7-1.562 1.563v10.625c0 .862.7 1.562 1.563 1.562h10.625c.862 0 1.562-.7 1.562-1.563V5.313c0-.863-.7-1.563-1.563-1.563zm18.75 0H24.062c-.862 0-1.562.7-1.562 1.563v10.625c0 .862.7 1.562 1.563 1.562h10.625c.862 0 1.562-.7 1.562-1.563V5.313c0-.863-.7-1.563-1.563-1.563zM15.938 22.5H5.312c-.862 0-1.562.7-1.562 1.563v10.625c0 .862.7 1.562 1.563 1.562h10.625c.862 0 1.562-.7 1.562-1.563V24.063c0-.863-.7-1.563-1.563-1.563zm18.75 0H24.062c-.862 0-1.562.7-1.562 1.563v10.625c0 .862.7 1.562 1.563 1.562h10.625c.862 0 1.562-.7 1.562-1.563V24.063c0-.863-.7-1.563-1.563-1.563z" stroke="#3B2317" stroke-width="2" stroke-linecap="round" stroke-linejoin="round"/></svg>