<svg width="80" height="22" fill="none" xmlns="http://www.w3.org/2000/svg"><g clip-path="url(#clip0_2514_291)"><path d="M48.17 14.452c.105 2.75 2.593 5.514 5.447 5.514 1.18 0 2.145-.296 2.87-.865.717-.577 1.083-1.33 1.083-2.262 0-.776-.24-1.419-.71-1.914-.478-.503-1.57-1.109-3.273-1.803-2.548-1.042-4.289-2.063-5.215-3.045-.927-.984-1.39-2.225-1.39-3.71 0-1.849.673-3.364 2.017-4.539C50.344.653 52.078.098 54.2.062c1.562-.03 5.104.362 6.27 1.093l-.015 5.3H59.28c-.045-2.528-2.205-4.679-4.745-4.679-1.046 0-1.868.259-2.48.769-.606.51-.912 1.205-.912 2.077 0 .776.239 1.404.71 1.884.47.488 1.584 1.08 3.325 1.782.351.151.707.292 1.068.421 1.823.724 3.063 1.367 3.706 1.936.665.614 1.166 1.28 1.487 2.003.314.717.478 1.545.478 2.484 0 2.047-.717 3.68-2.144 4.908-1.428 1.227-3.37 1.84-5.798 1.84-2.54 0-5.021-.473-7.33-1.545v-5.868l1.524-.015zm18.082.118c.105 2.742 2.593 5.507 5.44 5.507 1.187 0 2.151-.289 2.869-.865.724-.577 1.09-1.33 1.09-2.255 0-.783-.239-1.419-.717-1.921-.47-.503-1.561-1.109-3.265-1.803-2.548-1.043-4.289-2.063-5.215-3.046-.927-.983-1.397-2.217-1.397-3.703 0-1.847.68-3.363 2.017-4.538C68.419.764 70.16.21 72.282.172c1.561-.03 5.103.37 6.26 1.094l-.007 5.3h-1.172c-.046-2.528-2.212-4.672-4.753-4.672-1.038 0-1.868.26-2.473.77-.605.51-.911 1.204-.911 2.069 0 .776.239 1.411.71 1.892.47.48 1.583 1.079 3.324 1.774.24.103.598.25 1.061.428 1.831.717 3.071 1.368 3.714 1.93.665.62 1.165 1.285 1.48 2.002.32.717.485 1.553.485 2.491 0 2.047-.717 3.681-2.144 4.908-1.435 1.22-3.37 1.84-5.806 1.84-2.54 0-5.02-.48-7.322-1.552l-.008-5.86 1.532-.016zm-53.326-4.42c3.34-.45 4.804-2.335 4.804-4.885 0-1.545-.545-2.735-1.636-3.548C15.011.897 13.434.483 11.38.49L.18.497V1.68c1.353 0 2.436.155 2.436.725L2.6 19.729c-.56.54-1.853.614-2.6.614v1.212h11.633c3.378 0 6.83-1.234 7.21-5.359.337-3.68-1.912-5.905-5.917-6.046zM7.591 1.865c.015 0 .045-.008.082-.015.479-.03.837-.044 1.061-.044 1.517 0 2.623.347 3.325 1.034.703.68 1.061 1.789 1.061 3.304 0 1.382-.336 2.38-1 2.979-.666.606-1.757.909-3.266.909H7.591V1.865zm0 17.945v-8.5H9.55c2.174 0 4.296 1.19 4.296 4.361 0 3.652-3.056 4.73-6.254 4.14zM40.594 2.936C38.62.978 35.887.002 32.382.002c-3.459 0-6.171.99-8.136 2.964-1.965 1.974-2.952 4.7-2.952 8.175 0 3.363.964 5.994 2.892 7.893 1.928 1.9 4.61 2.846 8.054 2.846 3.542 0 6.314-.96 8.317-2.875 2.002-1.914 3.003-4.56 3.003-7.923 0-3.474-.994-6.194-2.966-8.146zm-3.953 14.62c-1.068 1.678-2.503 2.52-4.288 2.52-1.741 0-3.131-.842-4.17-2.512-1.038-1.67-1.561-3.947-1.561-6.808 0-2.816.538-5.062 1.614-6.725 1.068-1.663 2.503-2.491 4.289-2.491 1.71 0 3.1.835 4.146 2.498 1.046 1.67 1.57 3.895 1.57 6.667 0 2.89-.538 5.173-1.6 6.851z" fill="#161515"/></g><defs><clipPath id="clip0_2514_291"><path fill="#fff" d="M0 0h80v22H0z"/></clipPath></defs></svg>